<?xml version="1.0" encoding="UTF-8"?><svg id="Layer_2" xmlns="http://www.w3.org/2000/svg" viewBox="0 0 147.74 111.79"><defs><style>.cls-1{fill:#e5e4d8;}.cls-2{fill:#fed51b;}.cls-3{fill:#ffb92b;}.cls-4{fill:#fff9bd;}</style></defs><g id="Layer_1-2"><g><path class="cls-1" d="M144.19,6.91c-5.2-3.29-6.58-.94-6.58-.94,0,0-3.22,5.02-3.87,8.06-2.18-.57-5.93,.66-10.81,3.81-14.03,9.03-31.34,14.92-50.34,16.18s-36.94-2.29-52.04-9.38c-7.96-3.74-12.76-3.49-12.97,.2h0s0,.01,0,.02c-.01,.24,0,.5,.03,.78,0,.04,0,.08,.01,.12,.04,.29,.09,.6,.17,.92v.02c.08,.31,.19,.64,.31,.98,.02,.06,.04,.12,.06,.18,.13,.36,.28,.73,.46,1.11h0c.17,.38,.38,.78,.59,1.18,.04,.08,.09,.16,.13,.24,.46,.83,1.01,1.71,1.65,2.65,.07,.11,.15,.21,.22,.32,.33,.47,.67,.95,1.05,1.45,10.77,14.3,25.26,24.58,41.48,28.81-7.47,.98-14.83,1.13-21.93,.49-8.76-.79-13.18,1.08-12.12,4.62h0s0,.01,0,.02c.07,.23,.17,.47,.29,.72,.02,.04,.04,.08,.06,.12,.13,.26,.29,.53,.47,.8l.02,.02c.18,.26,.38,.53,.61,.8,.04,.05,.09,.11,.13,.16,.24,.29,.51,.58,.8,.88,0,0,.02,.02,.03,.03,.28,.29,.6,.58,.93,.87,.07,.07,.15,.13,.23,.2,.36,.31,.73,.62,1.14,.95h.02c.4,.32,.83,.64,1.28,.96,.11,.08,.22,.16,.33,.24,.47,.33,.96,.66,1.48,1,13.59,8.83,28.92,13.52,44.08,13.17-5.98,2.57-12.05,4.52-18.11,5.84-9.19,2-12.73,5.42-9.66,8.67,.02,.02,.04,.05,.07,.07,.21,.21,.44,.43,.71,.64h0c.25,.2,.54,.4,.84,.6,.06,.04,.11,.07,.17,.11,.32,.2,.66,.4,1.03,.6,.02,0,.04,.02,.06,.03,.35,.18,.72,.36,1.12,.54,.1,.04,.2,.09,.3,.13,.43,.19,.87,.37,1.35,.55,.03,.01,.07,.02,.1,.03,.45,.17,.93,.33,1.42,.5,.14,.05,.28,.09,.43,.14,.54,.17,1.1,.34,1.69,.51,24.41,6.81,49.83,2.71,68.29-13.47,18.46-16.18,25.86-40.84,22.31-65.93-.42-2.95-1-6.2-2.01-8.51h0c.75-3.53,3.54-6.52,4.99-7.88l.89-.78s1.3-2.19-3.38-5.15Z"/><g><g><path class="cls-2" d="M12.98,19.48C.33,13.54-4.34,17.65,4.7,29.66c15.24,20.24,37.92,32.44,62.41,30.81,24.5-1.63,45.36-16.72,57.79-38.8,7.38-13.1,2.2-16.56-9.55-9-14.03,9.03-31.34,14.92-50.34,16.18-19,1.26-36.94-2.29-52.04-9.38Z"/><path class="cls-3" d="M66.26,47.58C40.99,49.26,17.22,35.76,.01,19.68c-.12,2.17,1.34,5.53,4.69,9.99,15.24,20.24,37.92,32.44,62.41,30.81,24.5-1.63,45.36-16.72,57.79-38.8,2.73-4.86,5.65-10.9,2.48-12.67-14.94,18.22-35.86,36.89-61.13,38.57Z"/></g><g><path class="cls-2" d="M24.25,58.96c-13.92-1.26-16.9,4.2-4.3,12.4,21.25,13.8,46.73,17.51,69.19,7.6,22.47-9.91,36.91-31.23,41.04-56.22,2.45-14.83-3.59-16.31-12.05-5.19-10.09,13.28-24.35,24.74-41.77,32.42-17.43,7.68-35.5,10.49-52.11,8.99Z"/><path class="cls-3" d="M83.93,67.14c-23.17,10.22-50.12,5.66-71.8-3.56,.63,2.09,3.15,4.74,7.82,7.78,21.25,13.8,46.73,17.51,69.19,7.6,22.47-9.91,36.91-31.23,41.04-56.22,.91-5.5,1.58-12.17-1.99-12.75-7.8,22.23-21.08,46.93-44.26,57.15Z"/></g><g><path class="cls-2" d="M45.91,90.36c-13.66,2.97-14.87,9.08-.39,13.12,24.41,6.81,49.83,2.71,68.29-13.47,18.46-16.18,25.86-40.84,22.31-65.93-2.1-14.88-8.32-14.49-13.05-1.34-5.65,15.69-15.82,30.89-30.14,43.45-14.32,12.55-30.72,20.64-47.02,24.18Z"/><path class="cls-3" d="M105.3,80.29c-19.04,16.69-46.12,20.41-69.57,18.11,1.22,1.8,4.42,3.58,9.79,5.08,24.41,6.81,49.83,2.71,68.29-13.47,18.46-16.18,25.86-40.84,22.31-65.93-.78-5.52-2.14-12.09-5.72-11.57-.79,23.55-6.05,51.09-25.11,67.79Z"/><path class="cls-2" d="M131.53,14.36l-6.09,4.4s.25-7.35,.71-9.75c.58-3.03,3.9-8.2,3.9-8.2,0,0,1.38-2.35,6.58,.94,4.69,2.96,3.38,5.15,3.38,5.15l-8.47,7.46Z"/></g><path class="cls-3" d="M134.13,15.56c-.2,.94-3.86,.59-3.83-.3,.2-6.25,3.62-10.19,3.62-10.19,3.8,2.96,6.09,1.84,6.09,1.84,0,0-4.86,3.84-5.88,8.65Z"/><path class="cls-4" d="M97.88,77.46c0,2.55-2.07,4.62-4.63,4.62s-4.62-2.07-4.62-4.62,2.07-4.63,4.62-4.63,4.63,2.07,4.63,4.63Z"/><path class="cls-4" d="M80.76,58.66c0,2.56-2.07,4.63-4.63,4.63s-4.62-2.07-4.62-4.63,2.07-4.62,4.62-4.62,4.63,2.07,4.63,4.62Z"/><path class="cls-4" d="M65.23,36.99c0,2.56-2.07,4.62-4.62,4.62s-4.63-2.07-4.63-4.62,2.07-4.62,4.63-4.62,4.62,2.07,4.62,4.62Z"/></g></g></g></svg>