<?xml version="1.0" encoding="UTF-8"?><svg id="Layer_2" xmlns="http://www.w3.org/2000/svg" viewBox="0 0 150.03 111.79"><defs><style>.cls-1{fill:#e5e4d8;}.cls-2{fill:#fce466;}.cls-3{fill:#fed51b;}.cls-4{fill:#fffde8;}</style></defs><g id="Layer_1-2"><g><path class="cls-1" d="M150.03,58.47c0-5.34-3.83-9.78-8.9-10.74-6.04-24.29-32.15-42.57-63.44-42.57C44.47,5.16,17.1,25.77,13.38,52.3c-3.24,.2-5.81,2.88-5.81,6.18s2.57,5.98,5.81,6.18c3.72,26.53,31.09,47.13,64.31,47.13,31.29,0,57.4-18.27,63.44-42.57,5.06-.96,8.9-5.4,8.9-10.74Z"/><g><g><path class="cls-2" d="M134.88,53.31c0,29.45-28.99,53.31-64.76,53.31S5.37,82.76,5.37,53.31,34.36,0,70.12,0s64.76,23.87,64.76,53.31Z"/><path class="cls-4" d="M62.79,30.35c0,8.83-7.16,16-15.99,16s-15.99-7.16-15.99-16,7.16-15.99,15.99-15.99,15.99,7.16,15.99,15.99Z"/><path class="cls-2" d="M12.4,53.31c0,3.42-2.78,6.2-6.2,6.2s-6.2-2.78-6.2-6.2,2.77-6.2,6.2-6.2,6.2,2.77,6.2,6.2Z"/><path class="cls-2" d="M142.46,53.31c0,6.04-4.9,10.94-10.94,10.94s-10.94-4.9-10.94-10.94,4.9-10.94,10.94-10.94,10.94,4.9,10.94,10.94Z"/></g><path class="cls-3" d="M133.5,64.26c-50.9,38.36-104.75,18.45-123.11,9.65,9.79,19.21,32.84,32.71,59.74,32.71,31.2,0,57.24-18.17,63.38-42.37Z"/><path class="cls-3" d="M45.3,67.03c-.79,1.2-2.41,1.54-3.61,.75-1.2-.79-1.54-2.41-.75-3.61,.79-1.2,2.41-1.54,3.61-.75,1.21,.79,1.54,2.41,.75,3.61Z"/><path class="cls-3" d="M28.4,81.31c-.4,.6-1.2,.77-1.81,.37-.6-.4-.77-1.2-.37-1.81,.4-.6,1.21-.77,1.81-.37,.6,.4,.77,1.21,.38,1.81Z"/><path class="cls-3" d="M32.93,82.91c-.4,.6-1.2,.77-1.81,.37-.6-.4-.77-1.2-.37-1.81,.4-.6,1.21-.77,1.81-.37,.6,.4,.77,1.21,.38,1.81Z"/><path class="cls-3" d="M38.76,84.8c-.39,.6-1.2,.77-1.81,.37-.6-.4-.77-1.2-.37-1.81,.39-.6,1.2-.77,1.8-.37,.6,.4,.77,1.2,.37,1.81Z"/><path class="cls-3" d="M54.9,87.53c-.39,.6-1.2,.77-1.81,.37-.6-.4-.77-1.2-.37-1.8,.4-.6,1.2-.77,1.81-.38,.6,.4,.77,1.2,.37,1.81Z"/><path class="cls-3" d="M72.38,87.05c-.4,.6-1.2,.77-1.81,.37-.6-.39-.77-1.2-.37-1.8,.4-.6,1.2-.77,1.8-.37,.6,.39,.77,1.2,.37,1.81Z"/><path class="cls-3" d="M64.11,87.46c-.39,.6-1.2,.77-1.8,.37-.6-.4-.77-1.2-.37-1.8,.4-.6,1.2-.77,1.8-.37,.6,.4,.77,1.2,.37,1.81Z"/><path class="cls-3" d="M85.76,86.16c-.4,.6-1.2,.77-1.8,.37-.6-.39-.77-1.2-.38-1.81,.4-.6,1.21-.77,1.81-.37,.6,.4,.77,1.21,.37,1.81Z"/><path class="cls-3" d="M97.68,82.91c-.4,.6-1.2,.77-1.8,.37-.6-.39-.77-1.2-.38-1.81,.4-.6,1.2-.77,1.81-.37,.6,.4,.77,1.2,.37,1.8Z"/><path class="cls-3" d="M91.12,85.18c-.4,.6-1.2,.77-1.8,.37-.6-.4-.77-1.2-.38-1.81,.4-.6,1.2-.77,1.81-.37,.6,.4,.77,1.21,.37,1.81Z"/><path class="cls-3" d="M116.87,75.65c-.39,.6-1.2,.77-1.81,.37-.6-.39-.77-1.2-.37-1.8,.39-.6,1.2-.77,1.8-.37,.6,.4,.77,1.2,.37,1.8Z"/><path class="cls-3" d="M123.65,71.58c-.39,.6-1.2,.77-1.81,.37-.6-.4-.77-1.2-.37-1.8,.4-.6,1.2-.77,1.81-.37,.6,.39,.77,1.2,.37,1.8Z"/><path class="cls-3" d="M129.38,67.66c-.4,.6-1.2,.77-1.8,.37-.6-.4-.77-1.2-.38-1.81,.4-.6,1.21-.77,1.8-.37,.6,.4,.77,1.2,.38,1.8Z"/><path class="cls-3" d="M111.89,58.13c-.39,.6-1.2,.77-1.8,.37-.6-.39-.77-1.2-.37-1.8,.39-.6,1.2-.77,1.8-.37,.6,.4,.77,1.2,.37,1.81Z"/><path class="cls-3" d="M92.08,57.06c-.4,.6-1.2,.77-1.81,.37-.6-.4-.77-1.2-.37-1.8,.39-.6,1.2-.77,1.8-.38,.6,.4,.77,1.21,.37,1.81Z"/><path class="cls-3" d="M79.45,18.65c-.26,.4-.79,.51-1.19,.25-.4-.26-.51-.8-.25-1.19,.26-.4,.79-.51,1.19-.25,.4,.26,.51,.8,.25,1.19Z"/><path class="cls-3" d="M68.09,10.59c-.26,.4-.79,.51-1.19,.25-.4-.26-.51-.79-.25-1.19,.26-.4,.79-.51,1.19-.25,.4,.26,.51,.8,.25,1.19Z"/><path class="cls-3" d="M114.34,41.56c-.26,.4-.8,.51-1.19,.25-.4-.26-.51-.79-.25-1.19,.26-.4,.8-.51,1.19-.25,.4,.26,.51,.8,.25,1.19Z"/><path class="cls-3" d="M88.94,43.06c-.26,.4-.79,.51-1.19,.25-.4-.26-.51-.79-.25-1.19,.26-.4,.79-.51,1.19-.25,.4,.26,.51,.8,.25,1.19Z"/><path class="cls-2" d="M67.96,99.93c-.26,.4-.79,.51-1.19,.25-.4-.26-.51-.8-.25-1.19,.26-.4,.79-.51,1.19-.25,.4,.26,.51,.79,.25,1.19Z"/><path class="cls-3" d="M57.43,49.94c-.26,.4-.8,.51-1.19,.25-.4-.26-.51-.8-.25-1.19,.26-.4,.79-.51,1.19-.25,.4,.26,.51,.79,.25,1.19Z"/><path class="cls-3" d="M108.85,19.88c-.26,.4-.8,.51-1.19,.25-.4-.26-.51-.8-.25-1.19,.26-.4,.79-.51,1.19-.25,.4,.26,.51,.79,.25,1.19Z"/><path class="cls-3" d="M22.91,79.21c-.26,.4-.79,.51-1.19,.25-.4-.26-.51-.79-.25-1.19,.26-.4,.79-.51,1.19-.25,.4,.26,.51,.8,.25,1.19Z"/><path class="cls-2" d="M57.81,92.86c-.26,.4-.8,.51-1.19,.25-.4-.26-.51-.79-.25-1.19,.26-.4,.79-.51,1.19-.25,.4,.26,.51,.8,.25,1.19Z"/><path class="cls-3" d="M18.46,44.29c-.26,.4-.79,.51-1.19,.25-.4-.26-.51-.79-.25-1.19,.26-.4,.79-.51,1.19-.25,.4,.26,.51,.8,.25,1.19Z"/><path class="cls-2" d="M96.08,88.18c-.26,.4-.79,.51-1.19,.25-.4-.26-.51-.8-.25-1.19,.26-.4,.79-.51,1.19-.25,.4,.26,.51,.8,.25,1.19Z"/><path class="cls-3" d="M127.14,34.7c-.26,.4-.79,.51-1.19,.25-.4-.26-.51-.79-.25-1.19,.26-.4,.8-.51,1.19-.25,.4,.26,.51,.8,.25,1.19Z"/><path class="cls-3" d="M14.01,59.99c-.26,.4-.79,.51-1.19,.25-.4-.26-.51-.79-.25-1.19,.26-.4,.8-.51,1.19-.25,.4,.26,.51,.8,.25,1.19Z"/><path class="cls-3" d="M14.01,75.02c-.26,.4-.79,.51-1.19,.25-.4-.26-.51-.79-.25-1.19,.26-.4,.8-.51,1.19-.25,.4,.26,.51,.8,.25,1.19Z"/><path class="cls-3" d="M18.46,77.98c-.26,.4-.79,.51-1.19,.25-.4-.26-.51-.79-.25-1.19,.26-.4,.8-.51,1.19-.25,.4,.26,.51,.8,.25,1.19Z"/><path class="cls-3" d="M89.22,71.58c-.4,.6-1.2,.77-1.81,.37-.6-.4-.77-1.21-.37-1.81,.39-.6,1.2-.77,1.8-.37,.6,.4,.77,1.2,.38,1.8Z"/><path class="cls-3" d="M71.4,55.42c-.39,.6-1.2,.77-1.8,.37-.6-.4-.77-1.21-.37-1.81,.39-.6,1.2-.77,1.81-.38,.6,.4,.77,1.2,.37,1.81Z"/><path class="cls-3" d="M28.4,22.82c-.4,.6-1.2,.77-1.81,.37-.6-.39-.77-1.2-.37-1.81,.4-.6,1.2-.77,1.8-.37,.6,.4,.77,1.2,.38,1.8Z"/><path class="cls-2" d="M38.29,92.26c-.4,.6-1.2,.77-1.81,.37-.6-.39-.77-1.2-.37-1.8,.39-.6,1.21-.77,1.81-.37,.6,.39,.77,1.2,.37,1.8Z"/><path class="cls-3" d="M92.32,24.68c-.4,.6-1.2,.77-1.8,.37-.6-.4-.77-1.2-.37-1.8,.4-.6,1.2-.77,1.81-.37,.6,.4,.77,1.2,.37,1.81Z"/><path class="cls-2" d="M80.7,94.73c-.39,.6-1.2,.77-1.8,.37-.6-.4-.77-1.2-.37-1.8,.4-.6,1.2-.77,1.81-.38,.6,.4,.77,1.2,.37,1.81Z"/><path class="cls-2" d="M102.85,94.13c-.4,.6-1.21,.77-1.81,.37-.6-.39-.77-1.2-.37-1.81,.4-.6,1.21-.77,1.81-.37,.6,.4,.77,1.21,.38,1.81Z"/><path class="cls-3" d="M111.89,78.22c-.4,.6-1.2,.77-1.81,.37-.6-.4-.77-1.21-.38-1.81,.4-.6,1.21-.77,1.81-.38,.6,.4,.77,1.21,.37,1.81Z"/><path class="cls-3" d="M31.06,57.68c-.39,.6-1.2,.77-1.8,.37-.6-.39-.77-1.2-.37-1.81s1.2-.77,1.81-.37c.6,.4,.77,1.2,.37,1.81Z"/><path class="cls-3" d="M64.62,75.26c-.4,.6-1.2,.77-1.81,.37-.6-.4-.77-1.2-.37-1.8,.4-.6,1.2-.77,1.8-.37,.6,.39,.77,1.2,.37,1.8Z"/><path class="cls-3" d="M48.1,86.48c-.79,1.21-2.41,1.54-3.61,.75-1.2-.79-1.54-2.4-.75-3.61,.79-1.2,2.41-1.54,3.61-.75,1.2,.79,1.54,2.41,.75,3.61Z"/><path class="cls-3" d="M80.79,87.35c-.79,1.2-2.41,1.54-3.61,.75-1.2-.79-1.54-2.41-.75-3.61s2.41-1.54,3.61-.75c1.2,.79,1.54,2.41,.75,3.61Z"/><path class="cls-3" d="M106.15,80.04c-.79,1.2-2.41,1.54-3.61,.75-1.2-.79-1.54-2.41-.75-3.61,.79-1.2,2.41-1.54,3.61-.75,1.2,.79,1.54,2.41,.75,3.61Z"/></g></g></g></svg>