<?xml version="1.0" encoding="UTF-8"?><svg id="Layer_2" xmlns="http://www.w3.org/2000/svg" viewBox="0 0 149.23 111.79"><defs><style>.cls-1{fill:#e5e4d8;}.cls-2{fill:#fefbb4;}.cls-3{fill:#febd23;}.cls-4{fill:#e78d35;}</style></defs><g id="Layer_1-2"><g><path class="cls-1" d="M139.15,13.89l-8.57-8.73h-29.32l-8.54,8.71,.03,33.55,8.55,8.71h37.87V13.89Zm-14.9,13.32h-7.72v13.69h-8.78l-.02-20.5h16.52v6.81Z"/><rect class="cls-1" x="71.79" y="5.16" width="14.99" height="50.98"/><path class="cls-1" d="M56.98,56.14l7.86-9.1v-9.39l-6.61-7,6.6-7V14.21l-8.53-9.05H18.4l.03,50.98H56.98ZM33.43,18.64h16.38v5.27h-16.38v-5.27Zm16.4,24.03h-16.38v-5.27h16.38v5.27Z"/><polygon class="cls-1" points="134.68 60.85 134.7 87.04 118.75 60.85 104.12 60.85 104.15 111.75 118.67 111.75 118.65 85.8 134.61 111.75 149.23 111.75 149.2 60.85 134.68 60.85"/><polygon class="cls-1" points="86.05 60.85 72.04 60.85 63.56 87.58 55.07 60.85 39.92 60.85 31.45 87.65 22.93 60.85 7.57 60.85 23.81 111.75 39.1 111.75 47.51 85.3 55.95 111.75 71.22 111.75 86.05 65.05 86.05 111.79 101.04 111.79 101.04 60.81 86.05 60.81 86.05 60.85"/><g><g><g><path class="cls-4" d="M123.01,0h-29.32l-8.54,8.71,.03,33.55,8.55,8.71h37.87V8.73L123.01,0Zm-14.05,22.05v13.69h-8.78l-.02-20.5h16.52v6.81h-7.72Z"/><rect class="cls-4" x="64.22" width="14.99" height="50.98"/><path class="cls-4" d="M57.26,32.49l-6.6-7,6.6-7V9.05L48.73,0H10.83l.03,50.98H49.41l7.86-9.1v-9.39Zm-31.41-.26h16.38v5.27H25.87v-5.27Zm16.37-13.48H25.86v-5.27h16.38v5.27Z"/></g><g><polygon class="cls-4" points="141.66 106.58 141.63 55.69 127.11 55.69 127.13 81.88 111.18 55.69 96.55 55.69 96.58 106.58 111.1 106.58 111.08 80.64 127.04 106.58 141.66 106.58"/><polygon class="cls-4" points="64.47 55.69 55.99 82.42 47.5 55.69 32.35 55.69 23.88 82.49 15.36 55.69 0 55.69 16.24 106.58 31.53 106.58 39.94 80.14 48.38 106.58 63.65 106.58 79.81 55.69 64.47 55.69"/><rect class="cls-4" x="78.48" y="55.65" width="14.99" height="50.97"/></g></g><g><g><path class="cls-3" d="M95.62,46.43h31.42V26.59h-13.53v5.24h7.72v8.46h-25.58l-.03-29.58h25.61v7.62h5.82v-7.74l-5.94-6.04h-25.51l-5.91,6.02,.02,29.84,5.91,6.02Z"/><path class="cls-3" d="M68.76,46.43h5.91V4.54h-5.91V46.43Z"/><path class="cls-3" d="M15.41,46.43h31.93l5.4-6.24v-5.89l-5.94-6.29v14.03H21.33v-14.36h25.15l-2.07-2.2,2.08-2.2H21.32V8.93h25.45v14.04l5.94-6.28v-5.84l-5.95-6.31H15.38l.03,41.89Z"/></g><g><path class="cls-3" d="M129.58,102.04h7.53l-.02-41.81h-5.43l.02,37.85-23.05-37.85h-7.53l.02,41.81h5.43l-.02-37.47,23.05,37.47Z"/><path class="cls-3" d="M51.7,102.04h8.62l13.28-41.81h-5.81l-11.79,37.2-11.82-37.2h-8.5l-11.79,37.29L12.04,60.23H6.22l13.34,41.81h8.65l11.72-36.87,11.77,36.87Z"/><path class="cls-3" d="M83.02,102.09h5.91V60.2h-5.91v41.89Z"/></g></g><g><g><path class="cls-3" d="M121.12,4.53h-25.52l-5.93,6.03v.4l.05,29.45,5.88,6.03h31.45V26.61h-13.56v5.23h7.73v8.42h-25.57l-.05-29.3v-.25h25.62v7.62h5.83v-7.78l-5.93-6.03Z"/><path class="cls-3" d="M68.74,4.53V46.44h5.93V4.53h-5.93Z"/><path class="cls-3" d="M46.81,28v14.05H21.35v-14.35h25.12l-2.04-2.2,2.09-2.25H21.35l-.05-12.31v-2.04h25.47v2.04l.05,12.01,5.88-6.28v-5.83l-5.93-6.33H15.37v6.43l.05,35.48h31.9l5.43-6.23v-5.93l-5.93-6.28Z"/></g><g><path class="cls-3" d="M137.07,66.62v-6.38h-5.43v6.38l.05,31.45-19.19-31.45-3.89-6.38h-7.52v6.38l.05,35.44h5.43l-.05-35.44v-2.04l1.25,2.04,21.83,35.44h7.53l-.05-35.44Z"/><path class="cls-3" d="M67.79,60.25l-2.04,6.38-9.77,30.8-9.77-30.8-2.05-6.38h-8.47l-2.04,6.38-9.77,30.9-9.82-30.9-2.04-6.38H6.2l2.04,6.38,11.31,35.44h8.67l11.26-35.44,.45-1.45,.45,1.45,11.31,35.44h8.62l11.26-35.44,2.04-6.38h-5.83Z"/><path class="cls-3" d="M83.04,60.2v41.91h5.88V60.2h-5.88Z"/></g><polygon class="cls-2" points="52.69 10.86 52.69 10.96 46.76 10.96 46.76 8.92 21.3 8.92 21.3 10.96 15.37 10.96 15.37 4.53 46.76 4.53 52.69 10.86"/><rect class="cls-2" x="68.74" y="4.53" width="5.93" height="6.43"/><polygon class="cls-2" points="12.03 60.25 14.07 66.62 8.24 66.62 6.2 60.25 12.03 60.25"/><polygon class="cls-2" points="44.17 60.25 46.21 66.62 33.66 66.62 35.7 60.25 44.17 60.25"/><polygon class="cls-2" points="67.79 60.25 73.62 60.25 71.58 66.62 65.75 66.62 67.79 60.25"/><rect class="cls-2" x="83.04" y="60.2" width="5.88" height="6.43"/><polygon class="cls-2" points="108.61 60.25 112.5 66.62 101.09 66.62 101.09 60.25 108.61 60.25"/><rect class="cls-2" x="131.63" y="60.25" width="5.43" height="6.38"/><polygon class="cls-2" points="127.05 10.56 127.05 10.96 89.67 10.96 89.67 10.56 95.6 4.53 121.12 4.53 127.05 10.56"/></g></g></g></g></svg>