<?xml version="1.0" encoding="UTF-8"?><svg id="Layer_2" xmlns="http://www.w3.org/2000/svg" viewBox="0 0 16.97 131.52"><defs><style>.cls-1{fill:#f6a316;}</style></defs><g id="Layer_1-2"><g><path class="cls-1" d="M4.02,14.95v1.29c-.98-.16-1.76-.43-2.34-.81-.53-.35-.94-.78-1.24-1.29s-.44-1.06-.44-1.65c0-.71,.24-1.32,.73-1.83s1.07-.76,1.75-.76,1.2,.23,1.66,.69,.69,1.01,.69,1.65c0,.5-.17,.96-.5,1.39-.23,.29-.55,.53-.98,.71-.14,.07-.21,.12-.22,.16s.03,.09,.1,.15,.17,.11,.28,.16c.12,.05,.29,.09,.53,.14Z"/><path class="cls-1" d="M5.84,13.32V2.24c0-.48-.14-.76-.42-.82l-.46-.12c-.38-.09-.56-.31-.56-.64,0-.21,.09-.37,.26-.47s.44-.16,.78-.16h5.6l.32-.02,.42,.05c.3,.09,.46,.28,.46,.57,0,.31-.16,.52-.47,.63l-.38,.12c-.23,.08-.35,.34-.35,.77V11.94c0,1.43-.47,2.52-1.41,3.27-.45,.35-1.01,.63-1.7,.83s-1.41,.3-2.18,.3c-.13,0-.36,0-.68-.02v-1.36c.05-.04,.09-.07,.12-.08,.16-.12,.27-.21,.33-.29s.12-.17,.17-.28c.09-.26,.14-.59,.14-.98Z"/><path class="cls-1" d="M7.12,29.76c-.4,.14-.68,.33-.84,.57s-.25,.6-.25,1.07v10.48c0,.69,.09,1.17,.28,1.45,.15,.23,.42,.4,.81,.5v1.29c-1.73-.14-3.19-.79-4.36-1.96-1.52-1.52-2.29-3.63-2.29-6.34,0-1.36,.2-2.59,.6-3.69s1-2.03,1.79-2.79c.6-.59,1.25-1.03,1.95-1.34s1.46-.48,2.31-.52v1.27Z"/><path class="cls-1" d="M8.09,29.76v-1.27c.84,.04,1.62,.21,2.31,.52s1.35,.75,1.95,1.34c1.59,1.55,2.39,3.71,2.39,6.48s-.76,4.82-2.29,6.34c-1.17,1.17-2.63,1.82-4.37,1.96v-1.29c.2-.05,.36-.11,.47-.18s.22-.18,.31-.32c.21-.32,.32-.8,.32-1.45v-10.48c0-.41-.07-.74-.21-.98-.09-.16-.21-.29-.33-.39s-.31-.18-.56-.27Z"/><path class="cls-1" d="M7.62,73.61H2.09c-.28,0-.5-.05-.65-.16s-.23-.26-.23-.45c0-.32,.16-.53,.47-.63,.26-.09,.41-.14,.45-.16s.09-.06,.13-.13c.09-.12,.14-.32,.14-.6v-11.73c0-.27-.05-.47-.14-.6-.05-.07-.09-.12-.13-.13s-.19-.07-.45-.16c-.31-.1-.47-.31-.47-.63,0-.2,.08-.35,.23-.45s.37-.16,.65-.16H7.92c.28,0,.5,.05,.65,.16s.23,.26,.23,.45c0,.32-.16,.53-.47,.63-.26,.09-.41,.14-.45,.16s-.09,.06-.13,.13c-.09,.12-.14,.32-.14,.6v11.73c0,.44,.11,.7,.34,.77l.36,.12c.3,.09,.45,.3,.45,.63,0,.41-.28,.61-.83,.61h-.3Z"/><path class="cls-1" d="M12.26,62.25l3.54,9.26c.09,.25,.19,.44,.29,.57s.23,.23,.4,.3c.16,.08,.27,.14,.32,.18,.11,.11,.16,.25,.16,.43,0,.41-.29,.62-.88,.62h-5.89c-.28,0-.5-.06-.65-.18s-.23-.29-.23-.5c0-.25,.14-.45,.43-.59,.18-.09,.3-.16,.36-.22s.1-.14,.11-.24c0-.05-.03-.18-.09-.38l-1.5-4.48c-.14-.41-.21-.77-.21-1.05,0-.27,.11-.57,.34-.89l2.8-3.95c.27-.37,.4-.75,.4-1.15,0-.22-.06-.42-.18-.61s-.27-.32-.47-.4l-.42-.18c-.27-.11-.4-.29-.4-.55,0-.21,.08-.38,.25-.52,.11-.09,.29-.13,.54-.13h4.17c.27,0,.49,.06,.64,.18s.23,.29,.23,.51c0,.33-.18,.56-.54,.7l-.62,.25c-.26,.09-.59,.3-.98,.63-.3,.25-.66,.67-1.1,1.25l-.81,1.11Z"/><path class="cls-1" d="M7.36,86.41v16H1.84c-.28,0-.5-.05-.65-.16s-.23-.26-.23-.45c0-.32,.16-.53,.47-.63,.26-.09,.41-.14,.45-.16s.09-.06,.13-.13c.09-.12,.14-.32,.14-.6v-11.73c0-.27-.05-.47-.14-.6-.05-.07-.09-.12-.13-.13s-.19-.07-.45-.16c-.31-.1-.47-.31-.47-.63,0-.2,.08-.35,.23-.45s.37-.16,.65-.16H7.36Z"/><path class="cls-1" d="M8.34,94.94v-1.36c.45-.22,.79-.46,1.01-.71s.38-.6,.48-1.03c.06-.3,.14-.5,.25-.62s.25-.17,.43-.17c.25,0,.42,.1,.52,.29,.05,.1,.08,.33,.08,.69v4.46c0,.37-.04,.62-.12,.76s-.23,.21-.45,.21c-.18,0-.32-.05-.42-.16s-.18-.29-.25-.55c-.13-.54-.32-.95-.57-1.24s-.56-.48-.96-.57Z"/><path class="cls-1" d="M8.4,86.41h4.72v4.15c0,.24-.05,.42-.14,.53s-.24,.16-.45,.16c-.17,0-.3-.04-.38-.11s-.15-.21-.22-.43c-.3-.91-.73-1.6-1.31-2.07s-1.32-.76-2.23-.86v-1.37Z"/><path class="cls-1" d="M8.41,102.41v-1.27c.51-.08,.93-.19,1.26-.33s.67-.36,1-.64,.6-.59,.8-.9,.39-.72,.57-1.22c.09-.25,.18-.42,.27-.51s.22-.13,.39-.13c.22,0,.37,.06,.46,.19s.13,.35,.13,.67v4.14h-4.88Z"/><path class="cls-1" d="M7.36,115.21v13.77c0,.3,.06,.52,.18,.66,.06,.08,.12,.13,.18,.15s.23,.07,.54,.15c.38,.09,.56,.3,.56,.64,0,.2-.1,.37-.3,.49-.15,.09-.39,.14-.74,.14H1.84c-.28,0-.5-.05-.65-.16s-.23-.26-.23-.45c0-.32,.16-.53,.47-.63,.26-.09,.41-.14,.45-.16s.09-.06,.13-.13c.09-.12,.14-.32,.14-.6v-11.73c0-.27-.05-.47-.14-.6-.05-.07-.09-.12-.13-.13s-.19-.07-.45-.16c-.31-.1-.47-.31-.47-.63,0-.2,.08-.35,.23-.45s.37-.16,.65-.16H7.36Z"/><path class="cls-1" d="M10.96,123.37c.72,.11,1.27,.23,1.66,.36s.74,.31,1.05,.54c.33,.24,.58,.53,.76,.87s.26,.69,.26,1.07v2.43c0,.25,.08,.38,.25,.38,.06,0,.12-.02,.16-.05s.1-.1,.18-.21c.2-.27,.39-.4,.6-.4,.13,0,.27,.07,.4,.21s.2,.28,.2,.42c0,.24-.12,.54-.35,.88s-.52,.66-.86,.93c-.32,.26-.67,.44-1.04,.56s-.82,.17-1.32,.17c-1.03,0-1.84-.29-2.41-.88s-.87-1.41-.87-2.47v-1.97c0-.44,0-.69-.01-.76-.04-.31-.15-.58-.33-.81-.23-.27-.55-.43-.97-.48v-1.25c.42-.06,.72-.17,.9-.33,.16-.14,.26-.3,.32-.48s.09-.45,.09-.8v-3.11c0-.49-.1-.86-.29-1.1s-.54-.43-1.04-.57v-1.3h.3c.87,0,1.61,.03,2.21,.09,.91,.09,1.71,.38,2.43,.89,1.02,.73,1.54,1.76,1.54,3.11,0,1.1-.34,2-1.03,2.71-.29,.3-.63,.54-1.01,.73s-.97,.4-1.76,.63Z"/></g></g></svg>