<?xml version="1.0" encoding="UTF-8"?><svg id="Layer_2" xmlns="http://www.w3.org/2000/svg" viewBox="0 0 128.97 111.79"><defs><style>.cls-1{fill:#ea3d03;}.cls-2{fill:#e5e4d8;}.cls-3{fill:#7c9e4a;}.cls-4{fill:#ca2301;}.cls-5{fill:#ff8f8f;}.cls-6{fill:#b1d664;}</style></defs><g id="Layer_1-2"><g><path class="cls-2" d="M46.78,49.73c.44-.1,.88-.23,1.31-.36-.94,2.18-1.61,4.43-1.91,6.76-13.59,1.91-24.04,13.57-24.04,27.69,0,15.44,12.52,27.97,27.97,27.97,11.43,0,21.25-6.86,25.59-16.69,4.47,9.5,14.12,16.09,25.32,16.09,15.45,0,27.97-12.52,27.97-27.96,0-14.36-10.83-26.19-24.76-27.78-2.15-13.23-15.9-23.9-22.84-32.91-1.41-1.83-2.62-5.15-2.62-7.47V5.16h-6.99V15.07c0,.59-.08,1.24-.22,1.92-7.01-4.91-21.26-13.08-34.78-9.9C17.86,11.53,7.57,36.45,7.57,36.45c0,0,20.32,17.73,39.21,13.28Zm50.38,5.79c-9.75,1.34-17.9,7.72-21.74,16.42-4.04-8.6-12.34-14.81-22.18-15.91,.93-5.3,4.31-10.03,8.57-14.98,2.12-2.02,4-4.19,5.66-6.35,1.67-1.87,3.38-3.81,5.04-5.86,1.46-1.8,4.02-1.8,5.48,0,8.13,10.02,17.29,17.52,19.17,26.68Z"/><g><path class="cls-3" d="M39.21,44.57C20.32,49.02,0,31.29,0,31.29,0,31.29,10.29,6.36,29.18,1.92c18.88-4.44,39.21,13.29,39.21,13.29,0,0-10.3,24.92-29.18,29.37Z"/><path class="cls-6" d="M4.16,23.33c7.32,3.68,16.72,6.66,25.79,4.52,11.89-2.8,20.37-13.71,25.03-21.41C47.65,2.77,38.25-.21,29.18,1.92,17.29,4.72,8.81,15.63,4.16,23.33Z"/><g><path class="cls-4" d="M70.49,78.66c0,15.44-12.52,27.97-27.96,27.97s-27.97-12.52-27.97-27.97,12.52-27.97,27.97-27.97,27.97,12.52,27.97,27.97Z"/><path class="cls-1" d="M48.84,51.42c-2.03-.47-4.14-.72-6.31-.72-15.45,0-27.97,12.52-27.97,27.97,0,2.17,.26,4.28,.72,6.31,4.33,6.67,11.83,11.1,20.37,11.1,13.41,0,24.28-10.87,24.28-24.28,0-8.54-4.42-16.04-11.1-20.37Z"/><path class="cls-4" d="M51.67,55.13c0,1.62-4.09,2.93-9.14,2.93s-9.14-1.31-9.14-2.93,4.09-2.93,9.14-2.93,9.14,1.31,9.14,2.93Z"/><g><path class="cls-4" d="M121.4,78.06c0,15.44-12.52,27.96-27.97,27.96s-27.96-12.52-27.96-27.96,12.52-27.97,27.96-27.97,27.97,12.52,27.97,27.97Z"/><path class="cls-1" d="M99.75,50.82c-2.03-.47-4.14-.73-6.31-.73-15.45,0-27.96,12.52-27.96,27.97,0,2.17,.26,4.28,.72,6.31,4.33,6.67,11.83,11.1,20.37,11.1,13.41,0,24.28-10.87,24.28-24.28,0-8.55-4.43-16.05-11.1-20.37Z"/><path class="cls-4" d="M102.58,54.53c0,1.62-4.09,2.93-9.14,2.93s-9.14-1.31-9.14-2.93,4.09-2.93,9.14-2.93,9.14,1.31,9.14,2.93Z"/><path class="cls-5" d="M90.88,66.48c0,4.98-4.04,9.02-9.02,9.02s-9.02-4.04-9.02-9.02,4.04-9.02,9.02-9.02c4.98,0,9.02,4.04,9.02,9.02Z"/></g><path class="cls-5" d="M39.97,67.08c0,4.98-4.04,9.02-9.02,9.02s-9.02-4.04-9.02-9.02,4.04-9.02,9.02-9.02c4.98,0,9.02,4.04,9.02,9.02Z"/></g><path class="cls-6" d="M71.17,9.9V0h-6.99V9.9c0,2.32-1.21,5.63-2.62,7.47-7.54,9.79-23.14,21.54-23.14,36.39,0,.62,1.57,1.12,3.5,1.12s3.5-.5,3.5-1.12c0-10.78,10.42-18.85,19.52-30.09,1.46-1.8,4.02-1.8,5.48,0,9.11,11.23,19.53,19.3,19.53,30.09,0,.62,1.56,1.12,3.5,1.12s3.5-.5,3.5-1.12c0-14.86-15.59-26.6-23.14-36.39-1.42-1.83-2.62-5.15-2.62-7.47Z"/></g></g></g></svg>