<?xml version="1.0" encoding="UTF-8"?><svg id="Layer_2" xmlns="http://www.w3.org/2000/svg" viewBox="0 0 114.2 111.79"><defs><style>.cls-1{fill:#caabe4;}.cls-2{fill:#e5e4d8;}.cls-3{fill:#763f9c;}.cls-4{fill:#9768d2;}.cls-5{fill:#64348a;}.cls-6{fill:#516c29;}</style></defs><g id="Layer_1-2"><g><path class="cls-2" d="M99.65,23.69s.1-.05,.15-.07c-.1,.02-.2,.04-.29,.06-.45-.05-.91-.07-1.38-.07,6.29-7.34,13.54-11.3,13.54-11.3l-4.29-4.29s-6.44,4.71-11.67,12.11c-.41-4.43-3.45-7.89-5.8-10.24C81.61,1.6,48.24,2.94,26.93,24.26,5.61,45.57,.29,81.41,19.12,100.24c18.83,18.83,54.67,13.51,75.99-7.81,21.32-21.32,22.66-54.69,14.37-62.98-2.28-2.28-5.59-5.21-9.83-5.76Z"/><g><path class="cls-6" d="M104.1,7.15s-9.02,4.91-15.66,13.95l-2.58-2.58c5.39-9.41,13.95-15.66,13.95-15.66l4.29,4.29Z"/><g><path class="cls-4" d="M82.33,4.72C74.04-3.56,40.67-2.22,19.36,19.09-1.96,40.41-7.28,76.25,11.55,95.08c18.83,18.83,54.67,13.51,75.99-7.81,21.32-21.32,22.66-54.69,14.37-62.98-2.99-2.99-7.76-7.13-14.08-5.49,1.64-6.32-2.5-11.09-5.49-14.08Z"/><path class="cls-3" d="M67.22,81.16c-10.99,10.99-24.54,19.14-38.38,23.76,18.95,5.2,42.84-1.8,58.69-17.65,21.32-21.32,22.66-54.69,14.37-62.98-1.72-1.72-4.05-3.79-6.91-4.95-.62,17.93-8.86,42.91-27.77,61.82Z"/><path class="cls-5" d="M53.89,46.35c12.83-12.83,26.47-22.49,38.34-27.89-12.66,2.07-28.19,10.69-41.86,24.36-13.67,13.66-22.29,29.21-24.36,41.86,5.39-11.86,15.05-25.51,27.88-38.33Z"/></g><path class="cls-1" d="M37.55,31.65c4.54,4.54,4.54,11.91,0,16.45-4.54,4.54-11.91,4.54-16.45,0-4.54-4.55-4.54-11.91,0-16.45,4.54-4.54,11.91-4.54,16.45,0Z"/></g></g></g></svg>