<?xml version="1.0" encoding="UTF-8"?><svg id="Layer_2" xmlns="http://www.w3.org/2000/svg" viewBox="0 0 114.19 111.79"><defs><style>.cls-1{fill:#f27b37;}.cls-2{fill:#00ba00;}.cls-3{fill:#fba83e;}.cls-4{fill:#e5e4d8;}.cls-5{fill:#516c29;}.cls-6{fill:#f7e3b0;}</style></defs><g id="Layer_1-2"><g><path class="cls-4" d="M12.67,81.19h0v.02c.6,1.25,1.24,2.46,1.91,3.64,0,.01,.01,.03,.02,.04h0c13.59,23.88,43.47,33.71,68.81,21.9,24.95-11.63,36.66-40.12,27.9-65.58h0s-.01-.03-.02-.05c-.27-.77-.56-1.55-.86-2.31-.04-.1-.07-.19-.11-.29-.35-.87-.73-1.73-1.13-2.59-6.22-13.34-17.26-22.89-30.07-27.56h0c-12.82-4.67-27.41-4.44-40.75,1.78C11.68,22.61,.14,54.32,12.58,81c.03,.06,.06,.12,.09,.19Z"/><g><path class="cls-3" d="M101.62,30.79c12.44,26.68,.9,58.39-25.78,70.83-26.68,12.44-58.39,.9-70.83-25.78C-7.43,49.16,4.11,17.45,30.79,5.01c26.68-12.44,58.39-.9,70.83,25.78Z"/><path class="cls-1" d="M61.98,71.89c-19.34,9.02-39.74,10.47-56.21,5.47,12.92,25.58,43.91,36.46,70.08,24.25,26.16-12.2,37.75-42.92,26.46-69.27-6.76,15.84-20.98,30.53-40.32,39.55Z"/><path class="cls-6" d="M50.63,26.98c-2.32,6.38-9.38,9.67-15.76,7.35-6.38-2.32-9.68-9.38-7.35-15.77,2.32-6.38,9.38-9.67,15.77-7.35,6.38,2.32,9.68,9.38,7.35,15.76Z"/><path class="cls-1" d="M76.92,14.77c-1.7,4.67-6.87,7.08-11.54,5.38-4.67-1.7-7.08-6.87-5.38-11.54,1.7-4.67,6.87-7.08,11.54-5.38,4.67,1.7,7.08,6.87,5.38,11.54Z"/><path class="cls-1" d="M6.73,75.94c-.55-.2-1.14-.15-1.63,.09,.6,1.27,1.25,2.5,1.93,3.7,.42-.24,.78-.6,.95-1.09,.4-1.09-.17-2.3-1.26-2.69Z"/><path class="cls-1" d="M28.69,62.18c-.7,1.93-2.84,2.93-4.77,2.23-1.93-.71-2.93-2.84-2.23-4.77,.7-1.93,2.84-2.93,4.77-2.23,1.93,.7,2.93,2.84,2.23,4.77Z"/><path class="cls-1" d="M15,79.78c-.35,.97-1.42,1.46-2.39,1.11-.97-.35-1.47-1.42-1.11-2.39,.35-.96,1.42-1.46,2.39-1.11,.97,.35,1.47,1.42,1.11,2.39Z"/><path class="cls-1" d="M25.88,80.79c-.35,.96-1.42,1.46-2.39,1.11-.97-.35-1.46-1.42-1.11-2.39,.35-.97,1.42-1.46,2.39-1.11,.97,.35,1.46,1.42,1.11,2.39Z"/><path class="cls-1" d="M42.21,79.73c-.35,.96-1.42,1.46-2.39,1.11-.97-.35-1.46-1.42-1.11-2.39,.35-.97,1.42-1.47,2.39-1.11,.97,.35,1.46,1.42,1.11,2.39Z"/><path class="cls-1" d="M59.12,75.24c-.35,.97-1.42,1.46-2.39,1.11-.97-.35-1.46-1.42-1.11-2.39,.35-.97,1.42-1.47,2.39-1.11,.97,.35,1.46,1.42,1.11,2.39Z"/><path class="cls-1" d="M51.17,77.55c-.35,.96-1.42,1.46-2.38,1.11-.97-.35-1.47-1.42-1.11-2.39,.35-.97,1.42-1.46,2.39-1.11,.97,.35,1.47,1.42,1.11,2.39Z"/><path class="cls-1" d="M71.36,68.84c-.35,.97-1.42,1.46-2.39,1.11-.97-.35-1.47-1.42-1.11-2.39,.35-.96,1.42-1.46,2.39-1.11,.97,.35,1.46,1.42,1.11,2.39Z"/><path class="cls-1" d="M83.36,60.47c-.35,.97-1.42,1.47-2.39,1.11-.97-.35-1.46-1.42-1.11-2.39,.35-.96,1.42-1.46,2.39-1.11,.97,.35,1.46,1.42,1.11,2.39Z"/><path class="cls-1" d="M77.83,64.8c-.35,.97-1.42,1.46-2.39,1.11-.97-.35-1.47-1.42-1.11-2.39,.35-.97,1.42-1.46,2.39-1.11,.97,.35,1.47,1.42,1.11,2.39Z"/><path class="cls-1" d="M91.89,51.68c-.35,.97-1.42,1.47-2.39,1.11-.97-.35-1.46-1.42-1.11-2.39,.35-.97,1.42-1.47,2.39-1.11,.97,.35,1.46,1.42,1.11,2.39Z"/><path class="cls-1" d="M95.77,46.44c-.35,.97-1.42,1.46-2.39,1.11-.97-.35-1.46-1.42-1.11-2.39,.35-.97,1.42-1.46,2.39-1.11,.97,.35,1.46,1.42,1.11,2.39Z"/><path class="cls-1" d="M100.41,41.46c-.35,.97-1.42,1.46-2.39,1.11-.97-.35-1.47-1.42-1.12-2.39,.35-.97,1.42-1.47,2.39-1.11,.97,.35,1.47,1.42,1.12,2.39Z"/><path class="cls-1" d="M90.92,38.01c-.35,.97-1.42,1.46-2.39,1.11-.96-.35-1.46-1.42-1.11-2.39,.35-.97,1.42-1.46,2.38-1.11,.97,.35,1.46,1.42,1.11,2.39Z"/><path class="cls-1" d="M71.39,41.53c-.35,.97-1.42,1.47-2.39,1.11-.97-.35-1.46-1.42-1.11-2.39,.35-.97,1.42-1.47,2.39-1.12,.97,.35,1.46,1.42,1.11,2.39Z"/><path class="cls-1" d="M50.09,6.98c-.23,.64-.94,.97-1.58,.73-.64-.23-.97-.94-.74-1.58,.23-.64,.94-.97,1.58-.73,.64,.23,.97,.94,.73,1.58Z"/><path class="cls-1" d="M25.61,15.55c-.23,.64-.94,.97-1.58,.73-.64-.23-.96-.94-.73-1.58,.23-.64,.94-.97,1.57-.73,.64,.23,.97,.94,.74,1.58Z"/><path class="cls-1" d="M89.31,21.26c-.24,.64-.94,.97-1.58,.74-.64-.23-.97-.94-.73-1.58,.23-.64,.94-.97,1.58-.74,.64,.23,.97,.94,.74,1.58Z"/><path class="cls-1" d="M64.94,28.55c-.23,.64-.94,.97-1.58,.74-.64-.23-.97-.94-.73-1.58,.23-.64,.94-.97,1.58-.74,.64,.23,.97,.94,.73,1.58Z"/><path class="cls-1" d="M35.86,42.5c-.23,.64-.94,.97-1.58,.74-.64-.23-.97-.94-.73-1.58,.23-.64,.94-.97,1.58-.74,.64,.23,.97,.94,.73,1.58Z"/><path class="cls-3" d="M34.08,98.88c-.23,.64-.94,.97-1.58,.73-.64-.23-.97-.94-.74-1.58,.23-.64,.94-.97,1.57-.74,.64,.23,.97,.94,.74,1.58Z"/><path class="cls-3" d="M46.1,84.18c-.23,.64-.94,.97-1.58,.73-.64-.23-.97-.94-.74-1.58,.23-.64,.94-.97,1.58-.74,.64,.23,.97,.94,.74,1.58Z"/><path class="cls-3" d="M67.86,94.09c-.23,.64-.94,.97-1.58,.74-.64-.23-.97-.94-.74-1.58,.23-.64,.94-.97,1.58-.74,.64,.23,.97,.94,.74,1.58Z"/><path class="cls-3" d="M82.26,70.83c-.23,.64-.94,.97-1.57,.74-.64-.23-.97-.94-.73-1.58,.23-.64,.94-.97,1.57-.74,.64,.23,.97,.94,.74,1.58Z"/><path class="cls-3" d="M102.54,65.47c-.23,.64-.94,.97-1.57,.73-.64-.23-.97-.94-.74-1.58,.23-.64,.94-.97,1.58-.74,.64,.23,.97,.94,.74,1.58Z"/><path class="cls-1" d="M71.95,56.32c-.35,.97-1.42,1.46-2.39,1.11-.96-.35-1.46-1.42-1.11-2.39,.35-.96,1.42-1.46,2.38-1.11,.97,.35,1.47,1.42,1.11,2.39Z"/><path class="cls-1" d="M50.89,44.69c-.35,.96-1.42,1.46-2.39,1.11-.97-.35-1.46-1.42-1.11-2.39,.35-.97,1.42-1.47,2.39-1.12,.97,.35,1.47,1.42,1.11,2.39Z"/><path class="cls-1" d="M20.91,35.76c-.35,.97-1.42,1.47-2.39,1.11-.97-.35-1.47-1.42-1.11-2.39,.35-.97,1.42-1.47,2.39-1.11,.97,.35,1.47,1.42,1.11,2.39Z"/><path class="cls-3" d="M27.14,88.16c-.35,.97-1.42,1.46-2.39,1.11-.97-.35-1.46-1.42-1.11-2.38,.35-.97,1.42-1.47,2.39-1.11,.97,.35,1.46,1.42,1.11,2.39Z"/><path class="cls-3" d="M48.84,98.04c-.35,.97-1.42,1.46-2.39,1.11-.97-.35-1.47-1.42-1.11-2.39,.35-.97,1.42-1.46,2.39-1.11,.97,.35,1.47,1.42,1.11,2.39Z"/><path class="cls-3" d="M68.98,80.81c-.35,.96-1.42,1.47-2.39,1.11-.97-.35-1.46-1.42-1.11-2.39,.35-.97,1.42-1.47,2.39-1.12,.97,.35,1.47,1.42,1.11,2.39Z"/><path class="cls-3" d="M91.08,78c-.35,.97-1.42,1.46-2.39,1.11-.96-.35-1.46-1.42-1.11-2.39,.35-.96,1.42-1.46,2.39-1.11,.97,.35,1.47,1.42,1.12,2.39Z"/><path class="cls-3" d="M95.97,59.11c-.35,.96-1.42,1.46-2.39,1.11-.97-.35-1.46-1.42-1.11-2.39,.35-.97,1.42-1.47,2.39-1.12,.96,.35,1.46,1.42,1.11,2.39Z"/><path class="cls-1" d="M12.16,56.16c-.35,.97-1.42,1.46-2.39,1.11-.97-.35-1.46-1.42-1.11-2.39,.35-.97,1.42-1.46,2.39-1.11,.97,.35,1.46,1.42,1.11,2.39Z"/><path class="cls-1" d="M48.86,65.56c-.35,.97-1.42,1.46-2.39,1.11-.97-.35-1.47-1.42-1.11-2.39,.35-.97,1.42-1.47,2.39-1.11,.97,.35,1.47,1.42,1.11,2.39Z"/><path class="cls-1" d="M35.88,80.46c-.7,1.94-2.84,2.93-4.77,2.23-1.93-.7-2.93-2.84-2.23-4.77,.7-1.93,2.84-2.93,4.77-2.23,1.93,.71,2.93,2.84,2.23,4.77Z"/><path class="cls-1" d="M66.28,71.9c-.71,1.93-2.84,2.93-4.78,2.23-1.93-.7-2.93-2.84-2.22-4.77,.7-1.93,2.84-2.93,4.77-2.23,1.93,.7,2.93,2.84,2.23,4.77Z"/><path class="cls-1" d="M89.98,56.93c-.7,1.93-2.84,2.93-4.78,2.23-1.93-.7-2.93-2.84-2.22-4.77,.7-1.93,2.84-2.93,4.77-2.23,1.93,.7,2.93,2.84,2.23,4.77Z"/><path class="cls-1" d="M103.74,36.03c-.61-1.76-1.31-3.52-2.12-5.25-.25-.54-.52-1.06-.79-1.59-.92,.39-1.69,1.13-2.05,2.15-.7,1.93,.3,4.07,2.23,4.77,.93,.34,1.89,.27,2.74-.09Z"/><path class="cls-5" d="M72.1,4.2l.19,1.73c.12,1.06,.98,2.33,1.91,2.84l1.53,.82c.94,.51,.91,1.27-.06,1.71l-1.58,.71c-.97,.44-1.92,1.64-2.11,2.7l-.31,1.71c-.19,1.05-.93,1.26-1.64,.47l-1.17-1.29c-.72-.79-2.16-1.31-3.21-1.17l-1.72,.24c-1.06,.14-1.49-.49-.96-1.42l.87-1.51c.53-.93,.58-2.46,.12-3.42l-.75-1.57c-.46-.96,0-1.56,1.05-1.35l1.7,.35c1.04,.22,2.52-.21,3.29-.94l1.26-1.2c.77-.74,1.49-.48,1.61,.59Z"/><path class="cls-2" d="M75.74,9.58l-1.53-.82-11.24,4.49c-.53,.92-.1,1.56,.96,1.42l1.72-.24c1.06-.14,2.5,.38,3.21,1.17l1.17,1.29c.72,.79,1.46,.58,1.64-.47l.31-1.71c.19-1.05,1.13-2.26,2.11-2.7l1.58-.71c.98-.44,1-1.2,.06-1.71Z"/></g></g></g></svg>