<?xml version="1.0" encoding="UTF-8"?><svg id="Layer_2" xmlns="http://www.w3.org/2000/svg" viewBox="0 0 109.9 111.79"><defs><style>.cls-1{fill:#4e6b33;}.cls-2{fill:#fff;}.cls-3{fill:#3f3f3f;}.cls-4{fill:#e5e4d8;}.cls-5{fill:#7c9e4a;}.cls-6{fill:#f36362;}.cls-7{fill:#b1d664;}</style></defs><g id="Layer_1-2"><g><path class="cls-4" d="M89.4,5.17s-.05,0-.07,0c-.04,0-.08,0-.12,0C44.08,5.33,7.57,29.13,7.57,58.48s36.51,53.14,81.64,53.3c.04,0,.08,0,.12,0,.02,0,.05,0,.07,0,.09,0,.19,0,.28,0v-.02c11.2-.49,20.21-24.15,20.21-53.29S100.88,5.67,89.68,5.18v-.02c-.09,0-.19,0-.28,0Z"/><g><path class="cls-5" d="M0,53.31c0,29.44,36.76,53.31,82.11,53.31V0C36.76,0,0,23.87,0,53.31Z"/><path class="cls-1" d="M0,53.31c0,23.56,36.76,42.65,82.11,42.65V10.66C36.76,10.66,0,29.76,0,53.31Z"/><path class="cls-5" d="M0,53.31c0,16.01,36.76,28.98,82.11,28.98V24.33C36.76,24.33,0,37.31,0,53.31Z"/><path class="cls-1" d="M0,53.31c0,5.46,36.76,9.88,82.11,9.88v-19.77C36.76,43.43,0,47.86,0,53.31Z"/><path class="cls-7" d="M102.33,53.31c0,29.44-9.21,53.31-20.56,53.31s-20.56-23.87-20.56-53.31S70.4,0,81.76,0s20.56,23.87,20.56,53.31Z"/><ellipse class="cls-2" cx="81.76" cy="53.31" rx="17.05" ry="47.98"/><path class="cls-6" d="M95.31,53.31c0,23.55-6.07,42.65-13.55,42.65s-13.55-19.09-13.55-42.65,6.07-42.65,13.55-42.65,13.55,19.1,13.55,42.65Z"/><path class="cls-3" d="M82.91,19.45c0,1.4-.51,2.54-1.15,2.54s-1.14-1.14-1.14-2.54,.51-2.54,1.14-2.54,1.15,1.14,1.15,2.54Z"/><path class="cls-3" d="M82.91,87.18c0,1.4-.51,2.54-1.15,2.54s-1.14-1.14-1.14-2.54,.51-2.54,1.14-2.54,1.15,1.14,1.15,2.54Z"/><path class="cls-3" d="M90.47,34.77c-.99,.99-2.16,1.44-2.61,.99s0-1.61,.99-2.61c.99-.99,2.16-1.43,2.61-.99,.45,.45,0,1.61-.99,2.61Z"/><path class="cls-3" d="M74.97,73.05c-.99,.99-2.16,1.44-2.61,.99-.45-.45,0-1.61,.99-2.61,.99-.99,2.16-1.44,2.61-.99,.45,.45,0,1.61-.99,2.61Z"/><path class="cls-3" d="M73.35,34.77c.99,.99,2.16,1.44,2.61,.99,.45-.45,0-1.61-.99-2.61-.99-.99-2.16-1.43-2.61-.99-.45,.45,0,1.61,.99,2.61Z"/><path class="cls-3" d="M88.85,73.05c.99,.99,2.16,1.44,2.61,.99s0-1.61-.99-2.61-2.16-1.44-2.61-.99c-.45,.45,0,1.61,.99,2.61Z"/><path class="cls-3" d="M91.63,54.46c-1.4,0-2.54-.51-2.54-1.15s1.14-1.14,2.54-1.14,2.54,.51,2.54,1.14-1.14,1.15-2.54,1.15Z"/><path class="cls-3" d="M72.89,54.46c-1.4,0-2.54-.51-2.54-1.15s1.14-1.14,2.54-1.14,2.54,.51,2.54,1.14-1.14,1.15-2.54,1.15Z"/></g></g></g></svg>