<?xml version="1.0" encoding="UTF-8"?><svg id="Layer_2" xmlns="http://www.w3.org/2000/svg" viewBox="0 0 103.53 111.79"><defs><style>.cls-1{fill:#ea3d03;}.cls-2{fill:#e5e4d8;}.cls-3{fill:#ca2301;}.cls-4{fill:#ff8f8f;}</style></defs><g id="Layer_1-2"><g><path class="cls-2" d="M14.25,27.5c4.16,1.16,13.02,3.4,19.66,3.4,13.33,0,26.69-6.96,34.09-7.08,6.17-.1,10.49,1.9,13.19,3.8C67.9,38.41,15.13,83.05,15.13,111.79H53.7c0-26.96,49.83-93.63,49.83-93.63l-18.93-12.75c.25-.11-4.88,7.26-16.6,7.08-7.4-.11-20.76-7.08-34.09-7.08-6.64,0-15.5,2.24-19.66,3.4v-3.65H7.57V31.15h6.68v-3.65Z"/><g><g><path class="cls-1" d="M46.13,106.63H7.56C7.56,73.75,76.64,20.05,76.64,20.05l19.33-7.06S46.13,79.67,46.13,106.63Z"/><path class="cls-3" d="M38.22,77.14c-4.44,0-8.57-.68-12.09-1.84-8.13,10.78-12.88,20.02-14.09,27.55h30.19c.89-7.2,4.25-16.56,10.1-28.29-3.92,1.61-8.8,2.58-14.11,2.58Z"/><path class="cls-1" d="M95.96,12.99L77.03,.24c.25-.11-4.88,7.26-16.6,7.08C53.04,7.21,39.67,.24,26.35,.24,17.37,.24,4.33,4.33,4.33,4.33V21.65s13.04,4.09,22.01,4.09c13.33,0,26.69-6.96,34.09-7.08,11.72-.18,16.85,7.19,16.6,7.08l18.93-12.75Z"/><g><path class="cls-3" d="M73.69,22.57s0,.04,0,0c0,.02,0,0,0,0Z"/><path class="cls-3" d="M60.44,13.63c-7.4,.11-20.76,4.57-34.09,4.57-8.97,0-22.01-4.09-22.01-4.09v7.54s13.04,4.09,22.01,4.09c13.33,0,26.69-7.2,34.09-7.08,7.92,.13,13.14,3.43,13.25,3.91,.1-.61-1.91-9.11-13.25-8.94Z"/></g><rect class="cls-1" width="6.68" height="25.98"/></g><path class="cls-4" d="M80.57,6.78c0,1.47-1.19,2.67-2.66,2.67s-2.67-1.19-2.67-2.67,1.19-2.67,2.67-2.67,2.66,1.19,2.66,2.67Z"/><path class="cls-4" d="M20.82,8.46c0,2.35-1.91,4.27-4.27,4.27s-4.27-1.91-4.27-4.27,1.91-4.27,4.27-4.27,4.27,1.91,4.27,4.27Z"/></g></g></g></svg>